<svg width="24" height="24" viewBox="0 0 24 24" fill="none" xmlns="http://www.w3.org/2000/svg">
<circle cx="12" cy="12" r="12" fill="#9C7824"/>
<path d="M15.7291 7.68826C15.5569 7.59254 15.3675 7.5317 15.1718 7.50918C14.9761 7.48667 14.7778 7.50294 14.5884 7.55705C14.399 7.61117 14.222 7.70207 14.0677 7.82457C13.9134 7.94708 13.7848 8.09877 13.6891 8.27101L10.9044 13.2825L9.31062 11.6888C9.17225 11.5455 9.00673 11.4312 8.82373 11.3526C8.64072 11.274 8.44389 11.2326 8.24472 11.2309C8.04555 11.2291 7.84804 11.2671 7.66369 11.3425C7.47935 11.4179 7.31187 11.5293 7.17103 11.6702C7.03019 11.811 6.91881 11.9785 6.84339 12.1628C6.76797 12.3472 6.73002 12.5447 6.73175 12.7439C6.73348 12.943 6.77486 13.1399 6.85347 13.3229C6.93208 13.5059 7.04636 13.6714 7.18962 13.8098L10.1896 16.8098C10.4731 17.094 10.8556 17.25 11.2501 17.25L11.4579 17.235C11.6878 17.2028 11.9071 17.1178 12.0985 16.9864C12.29 16.8551 12.4483 16.6812 12.5611 16.4783L16.3111 9.72826C16.4069 9.55609 16.4678 9.36676 16.4903 9.17107C16.5129 8.97537 16.4967 8.77715 16.4426 8.58771C16.3886 8.39828 16.2978 8.22135 16.1753 8.06702C16.0529 7.91269 15.9013 7.78398 15.7291 7.68826Z" fill="black"/>
</svg>
